# xmcd CD database file
#
# Track frame offsets:
#	150
#	12225
#	28552
#	53220
#	74000
#	90897
#	112637
#	134262
#	146562
#	164185
#	188825
#
# Disc length: 2986 seconds
#
# Revision: 3
# Processed by: cddbd v1.5.2PL0 Copyright (c) Steve Scherf et al.
# Submitted via: jetAudio 5
#
DISCID=910ba80b
DTITLE=R. Kelly - Happy People [CD1]
DYEAR=2004
DGENRE=R&B
TTITLE0=Weatherman
TTITLE1=Red Carpet
TTITLE2=Love Signals
TTITLE3=Love Street
TTITLE4=Ladies' Night
TTITLE5=If
TTITLE6=The Greatest Show On Earth
TTITLE7=It's Your Birthday
TTITLE8=Steppin' Into Heaven
TTITLE9=If I Could Make The World Dance
TTITLE10=Happy People
EXTD=YEAR: 2004
EXTT0=
EXTT1=
EXTT2=
EXTT3=
EXTT4=
EXTT5=
EXTT6=
EXTT7=
EXTT8=
EXTT9=
EXTT10=
PLAYORDER=
